<?xml version="1.0" encoding="iso-8859-1"?>
<!-- Generator: Adobe Illustrator 23.0.2, SVG Export Plug-In . SVG Version: 6.00 Build 0)  -->
<svg version="1.1" id="&#x56FE;&#x5C42;_1" xmlns="http://www.w3.org/2000/svg" xmlns:xlink="http://www.w3.org/1999/xlink" x="0px"
	 y="0px" viewBox="0 0 500 500" style="enable-background:new 0 0 500 500;" xml:space="preserve">
<g>
	<circle style="fill:#FFB7B7;" cx="146.001" cy="198.689" r="19.325"/>
	<path style="fill:#FFB7B7;" d="M77.952,289.681L77.952,289.681c-2.014-2.973-6.095-3.758-9.069-1.743l-4.153,2.814l-5.473-1.125
		c-0.822-0.169-1.633,0.365-1.802,1.187c-0.169,0.822,0.365,1.633,1.187,1.802l2.56,0.526l-5.154,3.492
		c-2.973,2.014-3.758,6.095-1.743,9.068v0c2.014,2.973,6.095,3.758,9.068,1.743l12.835-8.696
		C79.182,296.735,79.966,292.654,77.952,289.681z"/>
	<g>
		<defs>
			<path id="XMLID_99_" d="M203.511,192.197c0,0,35.178-14.397,135.53,25.966s91.834,4.073,98.129-7.036
				c6.295-11.109-9.628-42.955-38.881-46.287c-29.254-3.333-18.515-18.885-9.258-29.254c9.258-10.368-16.796-31.925-57.278-4.298
				c0,0-111.125,43.234-129.724,58.64L203.511,192.197z"/>
		</defs>
		<use xlink:href="#XMLID_99_"  style="overflow:visible;fill:#4ED0D7;"/>
		<clipPath id="XMLID_2_">
			<use xlink:href="#XMLID_99_"  style="overflow:visible;"/>
		</clipPath>
		<path style="clip-path:url(#XMLID_2_);fill:#FFFFFF;" d="M345.195,206.884c-16.523,0.001-36.153-7.463-43.207-16.506
			c-10.813-13.863-33.014-14.762-43.547-9.291c-10.815,5.619-15.862,7.176-22.313-0.166c-4.488-5.104-28.18,9.435-36.93,15.469
			l-0.832-1.207c3.33-2.296,32.713-22.23,38.863-15.23c5.547,6.312,9.361,5.638,20.537-0.166c10.974-5.7,34.108-4.759,45.379,9.69
			c6.922,8.875,26.559,16.159,42.813,15.937c7.756-0.112,18.251-1.949,24.207-10.061c10.84-14.762,22.186-22.247,33.722-22.247
			c0.045,0,0.089,0,0.135,0c11.843,0.06,23.655,8.168,35.108,24.099l-1.19,0.855c-11.163-15.529-22.577-23.432-33.925-23.489
			c-0.042,0-0.085,0-0.127,0c-11.045,0-21.992,7.282-32.541,21.648c-6.313,8.597-17.28,10.542-25.368,10.659
			C345.719,206.883,345.456,206.884,345.195,206.884z"/>
	</g>
	<g>
		<defs>
			<path id="XMLID_98_" d="M201.315,187.983c0,0,1.419,1.666,6.205-6.11c0,0,20.616-52.212,54.221-69.987
				c0,0,6.388-3.055,14.997-19.718s43.325-53.601,56.934-14.164c13.609,39.437,7.776,47.491-4.166,54.712
				c0,0-113.357,46.658-124.166,57.211L201.315,187.983z"/>
		</defs>
		<use xlink:href="#XMLID_98_"  style="overflow:visible;fill:#11B7CA;"/>
		<clipPath id="XMLID_3_">
			<use xlink:href="#XMLID_98_"  style="overflow:visible;"/>
		</clipPath>
		<path style="clip-path:url(#XMLID_3_);fill:#FFFFFF;" d="M188.128,203.699l-0.523-0.514c0.45-0.458,45.383-45.944,77.085-55.545
			c15.882-4.81,25.158-8.736,28.686-15.695c3.533-6.969,1.116-17.259-3.93-31.601c-2.414-6.863-2.116-17.913,3.992-27.127
			c3.676-5.545,10.841-12.326,24.104-13.145l0.045,0.731c-12.961,0.801-19.954,7.413-23.538,12.819
			c-5.969,9.005-6.266,19.788-3.912,26.479c5.11,14.525,7.544,24.974,3.893,32.176c-3.647,7.194-13.051,11.196-29.127,16.065
			C233.379,157.888,188.576,203.242,188.128,203.699z"/>
	</g>
	<path style="fill:#11B7CA;" d="M184.334,202.538c0.417,2.96,2.461,4.851,8.972,0.577l15.501-14.156l-3.173-3.662l-16.291,8.145
		C185.946,195.141,183.805,198.779,184.334,202.538z"/>
	<path style="fill:#FFB7B7;" d="M218.945,206.508L218.945,206.508c-3.021,2.181-7.276,1.493-9.457-1.527l-8.027-11.119
		c-2.181-3.021-1.493-7.276,1.527-9.457l0,0c3.021-2.181,7.276-1.493,9.457,1.527l8.027,11.119
		C222.653,200.072,221.965,204.327,218.945,206.508z"/>
	<g>
		<defs>
			<path id="SVGID_65_" d="M237.052,218.286l-14.423-21.767c-0.723-1.091-2.206-1.392-3.297-0.669l-12.198,8.082
				c-1.098,0.728-1.401,2.221-0.674,3.32l6.216,9.382l-36.358,4.8c-0.477,0.054-0.936,0.154-1.387,0.274
				c-0.275,0.052-0.549,0.115-0.822,0.191l-2.112,0.591l-4.24-1.629c-1.558-0.598-3.289-0.555-4.815,0.12l-16.063,7.105
				c-1.923,0.851-3.295,2.603-3.661,4.673l-0.514,2.912l-0.908,0.519c-0.749,0.428-1.428,0.939-2.031,1.516
				c-0.183,0.105-0.367,0.205-0.545,0.323l-70.992,47.067c-1.13,0.749-1.442,2.286-0.693,3.417l8.163,12.319
				c0.768,1.16,2.346,1.48,3.505,0.711l61.962-41.084l11.426,33.919l60.782-23.556l-20.123-31.785l21.172-2.411
				c1.683-0.192,16.737-3.011,18.031-3.934c0.644-0.248,1.271-0.562,1.869-0.958C238.771,228.787,239.999,222.735,237.052,218.286z"
				/>
		</defs>
		<use xlink:href="#SVGID_65_"  style="overflow:visible;fill:#A9D4CA;"/>
		<clipPath id="SVGID_1_">
			<use xlink:href="#SVGID_65_"  style="overflow:visible;"/>
		</clipPath>
		<polygon style="clip-path:url(#SVGID_1_);fill:#94BEB3;" points="71.675,302.409 142.705,256.359 155.521,298.284 
			148.014,300.847 		"/>
		<path style="clip-path:url(#SVGID_1_);fill:#94BEB3;" d="M203.243,242.75c0,0-17.576-16.233-23.556-16.965
			c0,0,17.209,15.623,21.603,22.458L203.243,242.75z"/>
	</g>
	<polygon style="fill:#FFB7B7;" points="187.664,346.056 174.967,358.517 184.264,374.811 209.529,347.166 189.939,343.504 	"/>
	<polygon style="fill:#FFB7B7;" points="290.221,363.744 295.347,376.56 316.263,376.56 305.6,350.197 	"/>
	<g>
		<defs>
			<path id="SVGID_67_" d="M319.925,348.383c0,0-3.54-34.721-66.987-51.808l-39.564-25.753l-27.477,10.649l27.477,47.936
				c0,0,31.837,4.013,46.502,11.717c20.386,10.71,27.096,29.659,27.096,29.659L319.925,348.383z"/>
		</defs>
		<use xlink:href="#SVGID_67_"  style="overflow:visible;fill:#7E9A84;"/>
		<clipPath id="SVGID_2_">
			<use xlink:href="#SVGID_67_"  style="overflow:visible;"/>
		</clipPath>
		<path style="clip-path:url(#SVGID_2_);fill:#65816C;" d="M236.563,325.868c0,0,45.892-4.15,64.444,41.01l-17.576,17.072
			l-53.703-45.876L236.563,325.868z"/>
	</g>
	<g>
		<defs>
			<path id="SVGID_69_" d="M179.321,344.42l44.305,13.548c0,0,55.258-49.797,35.151-72.499c0,0-12.449-10.252-72.881-3.997
				l-33.305,12.907c0,0-4.341,19.65,9.52,29.903c0,0,12.075,8.005,25.257,5.076C201.676,326.177,191.254,335.876,179.321,344.42z"/>
		</defs>
		<use xlink:href="#SVGID_69_"  style="overflow:visible;fill:#8EA594;"/>
		<clipPath id="SVGID_3_">
			<use xlink:href="#SVGID_69_"  style="overflow:visible;"/>
		</clipPath>
		<path style="clip-path:url(#SVGID_3_);fill:#65816C;" d="M205.318,310.977c0,0-1.569,16.472-14.455,24.103
			c-5.535,3.278-39.38-14.371-33.024-11.776C187.129,335.264,205.318,310.977,205.318,310.977z"/>
	</g>
	<g>
		<defs>
			<path id="XMLID_91_" d="M176.758,355.862l-16.978,18.057l13.499,38.118h34.285c1.877-0.151,1.956-14.971-7.637-14.269
				c-10.03,0.734-13.116-4.832-14.031-11.606c0,0-1.8-10.827,6.973-18.934L176.758,355.862z"/>
		</defs>
		<use xlink:href="#XMLID_91_"  style="overflow:visible;fill:#26205C;"/>
		<clipPath id="XMLID_4_">
			<use xlink:href="#XMLID_91_"  style="overflow:visible;"/>
		</clipPath>
		<polygon style="clip-path:url(#XMLID_4_);fill:#FFFFFF;" points="150.981,346.484 174.571,409.829 214.97,409.829 
			214.848,407.877 176.036,407.877 153.09,345.386 		"/>
	</g>
	<g>
		<defs>
			<path id="XMLID_90_" d="M292.463,376.56h27.462c0,0-1.831,17.291,16.111,19.122c0,0,21.969,1.831,19.406,16.355h-62.979V376.56z"
				/>
		</defs>
		<use xlink:href="#XMLID_90_"  style="overflow:visible;fill:#26205C;"/>
		<clipPath id="XMLID_5_">
			<use xlink:href="#XMLID_90_"  style="overflow:visible;"/>
		</clipPath>
		<rect x="274.888" y="407.045" style="clip-path:url(#XMLID_5_);fill:#FFFFFF;" width="97.764" height="1.932"/>
	</g>
	<path style="fill:#26205C;" d="M163.41,190.291c0,0-4.432-8.621-15.7-4.539c0,0-8.666,5.248-6.225,10.252
		c0,0-12.449-1.587-7.445,6.957l-3.501,7.321c0,0-12.04-5.368-3.863-22.578S165.196,177.864,163.41,190.291z"/>
	<circle style="fill:#26205C;" cx="116.572" cy="187.705" r="7.75"/>
	<circle style="fill:#26205C;" cx="99.288" cy="184.963" r="15.222"/>
	<path style="fill:#FFFFFF;" d="M199.827,342.857c-0.359,0-0.707-0.194-0.886-0.534c-0.257-0.488-0.07-1.093,0.419-1.351
		c17.204-9.061,42.756-38.016,41.833-43.246c-1.984-3.143-40.082-0.95-75.757,3.017c-0.495,0.046-0.966-0.271-1.083-0.763
		c-0.117-0.49,0.15-0.992,0.623-1.168c9.213-3.44,11.913-10.678,11.938-10.751c0.187-0.518,0.759-0.79,1.278-0.604
		c0.52,0.186,0.791,0.755,0.606,1.274c-0.095,0.27-2.005,5.47-8.115,9.443c7.022-0.722,19.829-1.969,32.586-2.856
		c39.048-2.718,39.619,0.51,39.892,2.06c1.272,7.209-26.774,36.886-42.871,45.363C200.143,342.82,199.983,342.857,199.827,342.857z"
		/>
	<path style="fill:#26205C;" d="M146.001,236.305c-0.374,0-0.733-0.211-0.904-0.571c-0.237-0.499-0.024-1.096,0.475-1.332
		l23.678-11.229c0.5-0.235,1.095-0.024,1.332,0.475s0.024,1.096-0.475,1.332l-23.678,11.229
		C146.291,236.274,146.145,236.305,146.001,236.305z"/>
	<path style="fill:#017380;" d="M427.78,123.44h-62.543c-2.77,0-11.294,14.62-11.294,11.85V94.889c0-2.77,2.267-5.037,5.037-5.037
		h68.8c2.77,0,5.037,2.267,5.037,5.037v23.514C432.817,121.173,430.55,123.44,427.78,123.44z"/>
	<path style="fill:#FFFFFF;" d="M380.436,115.973c-0.056,0-0.11-0.004-0.166-0.012c-1.118-0.157-1.573-1.786-2.4-4.743
		c-0.622-2.221-1.472-5.263-2.911-8.692c-0.636-1.517-1.622-3.308-2.936-3.246c-2.871,0.148-6.022,8.507-6.995,11.715
		c-0.08,0.266-0.358,0.415-0.624,0.334c-0.264-0.08-0.414-0.359-0.333-0.623c0.378-1.25,3.815-12.214,7.9-12.424
		c1.488-0.118,2.804,1.221,3.909,3.857c1.462,3.487,2.323,6.563,2.952,8.81c0.544,1.945,1.106,3.956,1.577,4.022
		c0.74,0.056,2.79-3.274,3.472-4.383c4.385-7.126,9.951-11.623,13.545-10.982c1.187,0.219,2.722,1.109,3.295,4.114
		c0.591,3.104,1.642,4.918,3.037,5.244c1.395,0.319,2.906-0.892,3.849-2.141c1.316-1.742,3.385-4.087,6.15-4.33
		c1.867-0.163,3.781,0.655,5.698,2.436c0.202,0.188,0.214,0.504,0.026,0.706s-0.505,0.215-0.707,0.026
		c-1.701-1.578-3.358-2.313-4.93-2.172c-2.368,0.209-4.239,2.347-5.44,3.938c-1.468,1.941-3.293,2.877-4.875,2.511
		c-1.836-0.429-3.111-2.458-3.792-6.03c-0.375-1.967-1.213-3.083-2.493-3.317c-3.089-0.564-8.471,3.955-12.513,10.521
		C382.511,114.724,381.421,115.972,380.436,115.973z"/>
</g>
</svg>
